<svg width="101" height="101" viewBox="0 0 101 101" xmlns="http://www.w3.org/2000/svg"><title>900BC940-F73B-411F-94E9-CA295379A17C</title><g fill="none" fill-rule="evenodd"><ellipse stroke="#6EEBB3" stroke-width=".576" fill="#1FC67B" cx="50.5" cy="50.5" rx="49.5" ry="49.5"/><g fill-rule="nonzero" fill="#FFF"><path d="M60.6 66h5.2c6.1 0 11-5 11-11.1s-4.9-11-10.9-11.1h-.5v-.5c-.1-8.2-6.7-14.8-14.8-14.8-3.6 0-7.1 1.3-9.8 3.7-2.4 2.1-4.1 5-4.7 8.2l-.1.4h-.6c-6.8 0-12.4 5.7-12.4 12.6 0 7 5.6 12.6 12.5 12.6h4.8c.4 0 .7-.3.7-.7 0-.4-.3-.7-.7-.7h-4.8c-6.1 0-11.1-5-11.1-11.3 0-6.3 5-11.3 11.1-11.3.3 0 .7 0 1.1.1.4 0 .7-.2.7-.6.4-3.2 2-6.2 4.4-8.4 2.5-2.2 5.6-3.4 8.9-3.4 7.4 0 13.5 6.1 13.5 13.6v1c0 .2.1.4.2.5.1.1.3.2.5.2 5.7-.6 10.7 4 10.7 9.7 0 5.4-4.3 9.8-9.7 9.8h-5.2c-.4 0-.7.3-.7.7 0 .4.3.8.7.8z"/><path d="M50.6 35.4c.4 0 .7-.3.7-.7 0-.4-.3-.7-.7-.7-4.6 0-8.6 3.5-9.2 8.1-.1.4.2.7.6.8.2 0 .4-.1.5-.1.1-.1.2-.3.3-.5.5-3.9 3.9-6.9 7.8-6.9zM55.7 67.7c-.1-.1-.3-.2-.5-.2s-.3 0-.5.2L51.1 71V55.3c0-.4-.3-.7-.7-.7-.4 0-.7.3-.7.7v15.6l-3.6-3.3c-.1-.1-.3-.2-.4-.2-.2 0-.3.1-.5.2-.2.3-.2.7.1 1l4.2 3.8c.5.5 1.4.5 1.9 0l4.2-3.8c.3-.2.3-.6.1-.9z"/></g></g></svg>