<svg width="70" height="121" viewBox="0 0 70 121" xmlns="http://www.w3.org/2000/svg" xmlns:xlink="http://www.w3.org/1999/xlink"><title>220FE867-25ED-47A6-BDEE-2C5E66285765</title><defs><rect id="a" width="70" height="121" rx="10"/><mask id="c" x="0" y="0" width="70" height="121" fill="#fff"><use xlink:href="#a"/></mask><path d="M0 4.007A4.005 4.005 0 0 1 4.003 0h24.463L41 13.402v32.594A4.001 4.001 0 0 1 36.994 50H4.006A4.007 4.007 0 0 1 0 45.993V4.007z" id="b"/><mask id="d" x="0" y="0" width="41" height="50" fill="#fff"><use xlink:href="#b"/></mask><mask id="e" x="0" y="0" width="41" height="50" fill="#fff"><use xlink:href="#b"/></mask></defs><g fill="none" fill-rule="evenodd"><use stroke="#FFF" mask="url(#c)" stroke-width="2" fill="#2D0F41" xlink:href="#a"/><circle stroke="#FFF" stroke-width=".855" cx="34.5" cy="108.5" r="5.5"/><path d="M30.5 7.5h10" stroke="#FFF" stroke-linecap="square"/><g transform="translate(16 32)"><mask id="f" fill="#fff"><use xlink:href="#b"/></mask><g stroke="#FFF" mask="url(#d)" fill="#982BE1"><use mask="url(#e)" xlink:href="#b"/></g><path fill="#FFF" mask="url(#f)" d="M28 1v11.96h11.746z"/></g><path fill="#1FC67B" d="M33.089 53.628H25l6.597 5.29L28.66 68 36 62.326 43.338 68l-2.935-9.082L47 53.628h-8.09L36 45z"/></g></svg>