<svg width="102" height="102" viewBox="0 0 102 102" xmlns="http://www.w3.org/2000/svg"><title>BA8D4803-2B42-432E-A98A-2360E5654268</title><g fill="none" fill-rule="evenodd"><circle stroke="#CF98F5" stroke-width=".72" fill="#982BE1" cx="51" cy="51" r="50"/><path d="M71.1 49.6c0-5.6-2.1-10.8-6-14.7-3.9-3.9-9.1-6.1-14.6-6.1S39.8 31 35.9 34.9c-3.9 3.9-6 9.2-6 14.7v10.1c0 5.4 4.4 9.9 9.8 9.9.4 0 .7-.3.7-.7V50.6c0-.4-.3-.7-.7-.7-2.9 0-5.6 1.3-7.4 3.5l-.9 1v-4.8c0-10.7 8.6-19.4 19.2-19.4s19.2 8.7 19.2 19.4v5.2l-.9-1c-1.9-2.2-4.6-3.5-7.4-3.5-.4 0-.7.3-.7.7v18.2c0 .4.3.7.7.7 5.4 0 9.8-4.4 9.8-9.9V49.8c-.2-.1-.2-.1-.2-.2zm-32.9 1.8l.6-.1V68h-.6c-4-.6-7-4.2-7-8.3 0-4.1 3.1-7.6 7-8.3zm24.4 17.1l-.6.1V51.8l.6.1c4 .6 7 4.2 7 8.3 0 4.2-2.9 7.6-7 8.3z" fill-rule="nonzero" fill="#FFF"/></g></svg>