<svg width="191" height="30" viewBox="0 0 191 30" xmlns="http://www.w3.org/2000/svg" xmlns:xlink="http://www.w3.org/1999/xlink"><title>D3E7F2F8-5B6D-4E2F-8F7C-32A228E6BBB6</title><defs><path id="a" d="M23.398 29.59H0V.2h23.398v29.39z"/><path id="c" d="M0 29.45h190.88V0H0z"/></defs><g fill="none" fill-rule="evenodd"><path d="M18.725 2.393c2.84-2.808 7.046-3.202 9.395-.878C30.47 3.84 30.07 8 27.232 10.81l-4.384 4.374c-2.84 2.81-7.046 3.203-9.395.879-2.221-2.28-1.873-6.458.888-9.294l4.384-4.375z" fill="#ccc"/><path d="M27.319 18.711c2.848 2.8 3.247 6.948.89 9.265-2.356 2.316-6.576 1.924-9.424-.876l-3.424-3.325c-2.772-2.733-3.148-6.86-.89-9.265 2.355-2.316 6.575-1.924 9.424.876l3.424 3.325z" fill="#982BE1"/><g><mask id="b" fill="#fff"><use xlink:href="#a"/></mask><path d="M14.886 23.288l8.512-8.393-8.548-8.43-.005.005-3.952-3.885C8.044-.215 3.825-.607 1.468 1.71.178 2.978-.076 4.662.018 6.61L.01 23.592c.006.192.008.407.006.601-.012 1.475.452 2.853 1.494 3.883 2.349 2.324 6.555 1.93 9.394-.879l3.967-3.923.014.014z" fill="#1FC67B" mask="url(#b)"/></g><g><path fill="#474746" d="M56.547 4h5.275l-6.8 8.786 7.65 13.698h-5.217l-5.51-9.74-2.373 2.978v6.762H45V4h4.572v9.393z"/><mask id="d" fill="#fff"><use xlink:href="#c"/></mask><path d="M64 26.484h4.338V10.3H64v16.184zM64 7.93h4.338V4H64v3.93zM77.36 10.046h3.37v3.555h-3.37v8.237c0 .78.234 1.59 1.64 1.59.733 0 1.202-.29 1.73-.607v3.265c-.909.26-1.847.491-2.784.491-2.697 0-4.924-1.503-4.924-5.028V13.6H71v-3.555h2.022V6h4.337v4.046zM91.583 19.132c-1.788.318-5.333.492-5.333 2.862 0 .954.468 1.733 1.494 1.733 1.788 0 3.019-1.04 3.84-2.109v-2.486zm.235 5.925c-1.612 1.127-2.58 1.82-4.66 1.82-2.843 0-5.158-1.906-5.158-4.797 0-4.566 6.095-5.49 9.583-5.867.294-2.254-.469-3.063-2.08-3.063-1.378 0-2.374.607-2.609 2.023l-4.161-.636C83.7 11.098 86.043 10 89.473 10c4.425 0 6.448 2.08 6.448 5.115v8.035c0 1.156.059 2.312.586 3.381h-4.22l-.47-1.474zM103.338 21.774c.674 1.012 1.524 1.907 2.813 1.907 2.609 0 2.99-3.18 2.99-5.115 0-1.792-.499-4.798-2.902-4.798-1.26 0-2.14.867-2.901 1.763v6.243zM99 4h4.338v7.89c1.23-1.07 2.286-1.937 4.044-1.937 2.374 0 6.008 2.053 6.008 8.035 0 6.82-3.048 8.843-6.36 8.843-1.817 0-2.843-.549-4.161-1.705l-.381 1.358H99V4zM132.137 9.965c-.44-1.56-1.319-3.15-3.165-3.15-1.495 0-2.785 1.07-2.785 2.601 0 4.422 10.727 1.532 10.727 9.913 0 2.746-2.11 6.85-7.737 6.85-4.337 0-7.473-2.081-8.177-6.475l4.572-.664c.41 1.908 1.407 3.323 3.575 3.323 1.788 0 3.283-.924 3.283-2.86 0-4.51-10.726-1.908-10.726-9.567 0-4.045 3.458-6.936 7.414-6.936 3.869 0 6.77 2.457 7.151 6.243l-4.132.722zM147.583 19.132c-1.788.318-5.333.492-5.333 2.862 0 .954.468 1.733 1.494 1.733 1.788 0 3.019-1.04 3.84-2.109v-2.486zm.235 5.925c-1.612 1.127-2.58 1.82-4.66 1.82-2.843 0-5.158-1.906-5.158-4.797 0-4.566 6.095-5.49 9.583-5.867.294-2.254-.469-3.063-2.08-3.063-1.378 0-2.374.607-2.609 2.023l-4.161-.636c.967-3.439 3.31-4.537 6.74-4.537 4.425 0 6.448 2.08 6.448 5.115v8.035c0 1.156.059 2.312.586 3.381h-4.22l-.47-1.474zM169.09 26.184h-4.075l-1.933-10.837-2.052 10.837h-4.074L153 10h3.956l1.994 10.722L161.088 10h4.367l1.818 10.722L169.558 10h3.722zM181.36 10.046h3.37v3.555h-3.37v8.237c0 .78.234 1.59 1.64 1.59.733 0 1.202-.29 1.73-.607v3.265c-.909.26-1.847.491-2.784.491-2.697 0-4.924-1.503-4.924-5.028V13.6H175v-3.555h2.022V6h4.337v4.046zM187 26.484h4.338V10.3H187v16.184zm0-18.554h4.338V4H187v3.93z" fill="#474746" mask="url(#d)"/></g></g></svg>