<svg width="105" height="105" viewBox="0 0 105 105" xmlns="http://www.w3.org/2000/svg"><title>4E8E6F27-8082-4733-907B-30A3741CE8FE</title><g fill-rule="nonzero" fill="none"><path d="M66.066 8.524C76.047-1.481 90.82-2.88 99.06 5.394c8.24 8.272 6.855 23.092-3.118 33.097L80.543 54.06c-9.981 10.005-24.753 11.402-32.994 3.13-7.8-8.116-6.575-22.996 3.118-33.097l15.4-15.57z" fill="#CCC"/><path d="M96.081 66.302c10.005 9.98 11.402 24.753 3.13 32.993-8.272 8.24-23.092 6.855-33.097-3.118L54.09 84.335c-9.733-9.73-11.055-24.43-3.13-32.993 8.276-8.248 23.092-6.855 33.097 3.118L96.08 66.302z" fill="#982BE1"/><path d="M52.28 82.435l29.891-29.891L52.15 22.52 38.255 8.703C28.25-1.277 13.435-2.663 5.158 5.585.627 10.105-.267 16.097.064 23.036L.04 83.516c.024.688.028 1.45.024 2.14-.044 5.255 1.597 10.157 5.242 13.83 8.248 8.277 23.02 6.875 32.993-3.13l13.93-13.973.051.052z" fill="#1FC67B"/></g></svg>