<svg width="170" height="41" viewBox="0 0 170 41" xmlns="http://www.w3.org/2000/svg" xmlns:xlink="http://www.w3.org/1999/xlink"><title>C78C5F92-B801-4534-9E5B-512938CD943E</title><defs><path id="a" d="M40.812.01H.054V40.67h40.758z"/></defs><g fill="none" fill-rule="evenodd"><g fill="#FFF"><path d="M67.802 11.713l-5.317 7.361v-7.361H59v17.623h3.485v-5.3l1.81-2.334 4.2 7.634h3.976l-5.83-10.737 5.182-6.886zM73.775 29.336h3.259V16.65h-3.26v12.685zm0-14.543h3.259v-3.08h-3.26v3.08zM83.166 16.637h2.559v2.778h-2.56v6.437c0 .61.179 1.242 1.247 1.242.556 0 .912-.225 1.313-.474v2.552c-.69.204-1.402.384-2.114.384-2.047 0-3.738-1.174-3.738-3.93v-6.21h-1.536v-2.779h1.536v-3.162h3.293v3.162zM94.131 23.49c-1.366.25-4.074.385-4.074 2.241 0 .747.358 1.358 1.141 1.358 1.366 0 2.306-.815 2.933-1.652v-1.946zm.179 4.64c-1.23.883-1.97 1.426-3.56 1.426-2.17 0-3.939-1.493-3.939-3.757 0-3.576 4.656-4.3 7.32-4.594.224-1.766-.358-2.4-1.59-2.4-1.051 0-1.812.476-1.992 1.585l-3.178-.498c.738-2.693 2.529-3.553 5.148-3.553 3.38 0 4.925 1.63 4.925 4.006v6.292c0 .905.045 1.81.448 2.648h-3.224l-.358-1.155zM136.717 23.49c-1.366.25-4.074.385-4.074 2.241 0 .747.358 1.358 1.141 1.358 1.366 0 2.306-.815 2.933-1.652v-1.946zm.179 4.64c-1.231.883-1.97 1.426-3.56 1.426-2.171 0-3.94-1.493-3.94-3.757 0-3.576 4.657-4.3 7.32-4.594.225-1.766-.357-2.4-1.589-2.4-1.052 0-1.813.476-1.992 1.585l-3.179-.498c.74-2.693 2.53-3.553 5.15-3.553 3.38 0 4.924 1.63 4.924 4.006v6.292c0 .905.045 1.81.448 2.648h-3.224l-.358-1.155zM153.368 29.336h-3.099l-1.471-8.556h-.044l-1.516 8.556h-3.1l-3.009-12.777h3.01l1.516 8.464h.044l1.583-8.464h3.322l1.382 8.464h.044l1.695-8.464h2.83zM161.819 16.637h2.559v2.778h-2.56v6.437c0 .61.18 1.242 1.247 1.242.556 0 .912-.225 1.313-.474v2.552c-.69.204-1.402.384-2.114.384-2.047 0-3.738-1.174-3.738-3.93v-6.21h-1.536v-2.779h1.536v-3.162h3.293v3.162zM166.116 29.336h3.26V16.65h-3.26v12.685zm0-14.543h3.26v-3.08h-3.26v3.08zM102.905 25.603c.509.79 1.15 1.491 2.124 1.491 1.97 0 2.257-2.485 2.257-3.998 0-1.4-.376-3.75-2.19-3.75-.952 0-1.616.678-2.191 1.379v4.878zm-3.275-13.89h3.275v6.166c.93-.836 1.726-1.514 3.053-1.514 1.792 0 4.536 1.604 4.536 6.28 0 5.33-2.301 6.911-4.802 6.911-1.371 0-2.145-.429-3.141-1.332l-.288 1.061H99.63V11.713zM124.723 16.92c-.33-1.216-.99-2.455-2.377-2.455-1.122 0-2.09.834-2.09 2.028 0 3.445 8.054 1.193 8.054 7.725 0 2.14-1.584 5.338-5.81 5.338-3.257 0-5.612-1.621-6.14-5.045l3.434-.518c.308 1.487 1.056 2.59 2.684 2.59 1.343 0 2.465-.72 2.465-2.23 0-3.513-8.055-1.486-8.055-7.455 0-3.153 2.598-5.406 5.568-5.406 2.905 0 5.084 1.915 5.37 4.865l-3.103.563z"/></g><path d="M25.906 3.334C29.83-.58 35.64-1.126 38.884 2.11c3.245 3.236 2.696 9.032-1.226 12.944L14.985 37.666c-3.922 3.913-9.733 4.46-12.978 1.224-3.068-3.174-2.587-8.993 1.227-12.944L25.906 3.334z" fill="#FFF"/><g><mask id="b" fill="#fff"><use xlink:href="#a"/></mask><path d="M37.49 25.742c3.898 3.88 4.444 9.627 1.22 12.837-3.225 3.21-8.999 2.666-12.897-1.214L3.285 14.94c-3.793-3.787-.62-1.727 2.467-5.06 3.224-3.21 6.925-8.458 10.823-4.578l20.916 20.44z" fill="#982BE1" mask="url(#b)"/></g><path d="M31.98 20.5L20.296 8.74l-5.408-5.412C10.995-.578 5.228-1.125 2.007 2.107.243 3.877-.104 6.224.024 8.943L.015 32.632c.009.268.011.567.009.838-.017 2.058.617 3.979 2.04 5.417 3.211 3.241 8.96 2.693 12.841-1.226l5.42-5.473L31.98 20.499z" fill="#1FC67B"/></g></svg>