<svg width="49" height="48" viewBox="0 0 49 48" xmlns="http://www.w3.org/2000/svg"><title>A71DC125-4C57-4A0A-B90E-2E2E01E93009</title><g fill="#C0BFBF" fill-rule="evenodd"><path d="M.872 24c0-13.255 10.757-24 24.026-24 13.27 0 24.027 10.745 24.027 24S38.168 48 24.898 48C11.628 48 .872 37.255.872 24zm24.027-12.8c-3.48 0-3.916.015-5.283.077-1.365.063-2.296.278-3.11.595a6.275 6.275 0 0 0-2.27 1.476 6.283 6.283 0 0 0-1.48 2.267c-.317.814-.533 1.745-.595 3.107-.06 1.365-.077 1.802-.077 5.278 0 3.476.016 3.911.077 5.277.063 1.362.28 2.293.596 3.106a6.271 6.271 0 0 0 1.478 2.268 6.275 6.275 0 0 0 2.269 1.477c.815.317 1.747.533 3.11.595 1.367.062 1.804.077 5.284.077 3.48 0 3.916-.015 5.283-.077 1.364-.062 2.296-.278 3.111-.595a6.27 6.27 0 0 0 2.269-1.477 6.283 6.283 0 0 0 1.479-2.267c.315-.814.53-1.745.595-3.107.061-1.365.077-1.8.077-5.277 0-3.476-.016-3.912-.077-5.278-.064-1.362-.28-2.293-.595-3.106a6.282 6.282 0 0 0-1.48-2.268 6.263 6.263 0 0 0-2.269-1.476c-.816-.317-1.748-.532-3.112-.595-1.367-.062-1.802-.077-5.284-.077h.004z"/><path d="M23.842 13.603h1.15c3.421 0 3.827.012 5.178.074 1.25.057 1.927.265 2.379.44.598.233 1.024.51 1.473.958.448.448.726.875.959 1.472.175.45.384 1.128.44 2.376.062 1.35.076 1.755.076 5.17 0 3.417-.014 3.822-.075 5.171-.057 1.248-.266 1.926-.441 2.376a3.957 3.957 0 0 1-.96 1.47 3.963 3.963 0 0 1-1.472.958c-.451.176-1.13.384-2.38.441-1.35.062-1.756.075-5.177.075-3.422 0-3.827-.013-5.178-.075-1.25-.057-1.928-.266-2.38-.441a3.97 3.97 0 0 1-1.473-.957 3.967 3.967 0 0 1-.96-1.472c-.175-.45-.384-1.128-.44-2.376-.062-1.349-.074-1.754-.074-5.172 0-3.419.012-3.822.073-5.171.058-1.248.266-1.926.442-2.377.232-.597.51-1.024.959-1.472a3.977 3.977 0 0 1 1.473-.958c.452-.176 1.13-.384 2.38-.441 1.182-.053 1.64-.07 4.028-.072v.003zm7.99 2.126a1.537 1.537 0 1 0 1.538 1.535c0-.848-.69-1.536-1.538-1.536zm-6.84 1.794a6.577 6.577 0 0 0-6.58 6.574 6.576 6.576 0 0 0 6.58 6.572 6.575 6.575 0 0 0 6.58-6.572 6.577 6.577 0 0 0-6.58-6.574z"/><path d="M25.165 20a4.27 4.27 0 0 1 4.272 4.267 4.27 4.27 0 0 1-4.272 4.266 4.27 4.27 0 0 1-4.271-4.266A4.269 4.269 0 0 1 25.165 20z"/></g></svg>