<svg width="49" height="48" viewBox="0 0 49 48" xmlns="http://www.w3.org/2000/svg"><title>C19C855F-555E-4135-8549-E40FA484BE5D</title><path d="M.947 24c0-13.255 10.757-24 24.026-24C38.243 0 49 10.745 49 24S38.243 48 24.973 48C11.704 48 .947 37.255.947 24zm23.307-4.492l.05.83-.84-.102c-3.059-.39-5.73-1.711-8-3.932l-1.109-1.101-.286.813c-.605 1.814-.218 3.729 1.042 5.017.673.712.521.813-.638.39-.404-.136-.757-.238-.79-.187-.118.119.286 1.661.605 2.271.437.848 1.328 1.678 2.302 2.17l.824.39-.975.016c-.941 0-.975.017-.874.373.336 1.102 1.664 2.271 3.143 2.78l1.042.356-.908.542a9.47 9.47 0 0 1-4.504 1.254c-.756.017-1.378.085-1.378.136 0 .17 2.05 1.118 3.244 1.491 3.58 1.102 7.831.627 11.025-1.254 2.268-1.339 4.537-4 5.596-6.576.571-1.373 1.143-3.881 1.143-5.084 0-.78.05-.882.991-1.814.555-.542 1.076-1.135 1.177-1.305.168-.322.151-.322-.706-.034-1.429.509-1.63.441-.924-.322.52-.542 1.142-1.525 1.142-1.813 0-.051-.252.034-.537.186-.303.17-.975.424-1.48.577l-.907.288-.823-.56c-.454-.305-1.093-.644-1.429-.745-.857-.238-2.168-.204-2.941.067-2.1.763-3.428 2.73-3.277 4.882z" fill="#C2C1C1" fill-rule="evenodd"/></svg>